<svg height="481pt" viewBox="0 0 481.6 481" width="481pt" xmlns="http://www.w3.org/2000/svg"><g fill="#4282b7"><path d="m225.601562 168.300781h56v304h-56zm0 0"/><path d="m321.601562 80.300781h56v392h-56zm0 0"/><path d="m417.601562 8.300781h56v464h-56zm0 0"/><path d="m113.601562 208.300781h56v264h-56zm0 0"/><path d="m17.601562 264.300781h56v208h-56zm0 0"/></g><path d="m1.601562 464.300781h480v16h-480zm0 0" fill="#3a6289"/><path d="m217.601562 280.300781h240c8.796876 0 16 7.199219 16 16v160c0 8.800781-7.203124 16-16 16h-240c-8.800781 0-16-7.199219-16-16v-160c0-8.800781 7.199219-16 16-16zm0 0" fill="#3f3f3f"/><path d="m201.601562 320.300781h272v-24c0-8.800781-7.203124-16-16-16h-240c-8.800781 0-16 7.199219-16 16zm0 0" fill="#2b2b2b"/><path d="m377.601562 280.300781h-16v-40c0-4.800781-3.203124-8-8-8h-32c-4.800781 0-8 3.199219-8 8v40h-16v-40c0-13.601562 10.398438-24 24-24h32c13.597657 0 24 10.398438 24 24zm0 0" fill="#2b2b2b"/><path d="m313.601562 320.300781v32c0 8.800781 7.199219 16 16 16h16c8.796876 0 16-7.199219 16-16v-32zm0 0" fill="#777"/><path d="m11.199219 185.898438-11.199219-11.199219 137.601562-137.597657 80 80 114.398438-114.402343 11.199219 11.199219-125.597657 125.601562-80-80zm0 0" fill="#5da364"/><path d="m345.601562 48.300781h-16v-32h-40v-16h56zm0 0" fill="#5da364"/><path d="m457.601562 272.300781h-80v-32c0-13.601562-10.402343-24-24-24h-32c-13.601562 0-24 10.398438-24 24v32h-80c-13.601562 0-24 10.398438-24 24v160c0 2.398438.796876 5.597657 1.597657 8h-17.597657v-264h-72v264h-24v-208h-72v208h-8v16h456c13.597657 0 24-10.402343 24-24v-160c0-13.601562-10.402343-24-24-24zm-144-32c0-4.800781 3.199219-8 8-8h32c4.796876 0 8 3.199219 8 8v32h-48zm-96 48h240c4.796876 0 8 3.199219 8 8v16h-256v-16c0-4.800781 3.199219-8 8-8zm104 40h32v24c0 4.800781-3.203124 8-8 8h-16c-4.800781 0-8-3.199219-8-8zm-200-112h40v248h-40zm-96 56h40v192h-40zm432 192h-240c-4.800781 0-8-3.199219-8-8v-128h96v24c0 13.597657 10.398438 24 24 24h16c13.597657 0 24-10.402343 24-24v-24h96v128c0 4.800781-3.203124 8-8 8zm0 0"/><path d="m137.601562 59.5 80 80 112-112v20.800781h16v-48h-56v16h28.796876l-100.796876 100.800781-80-80-137.601562 137.597657 11.199219 11.199219zm0 0"/><path d="m409.601562.300781v256h16v-240h40v240h16v-256zm0 0"/><path d="m385.601562 200.300781v-128h-72v128h16v-112h40v112zm0 0"/><path d="m289.601562 216.300781v-56h-72v96h16v-80h40v40zm0 0"/></svg>